<?xml version="1.0" encoding="utf-8"?>
<!-- Generator: Adobe Illustrator 19.0.0, SVG Export Plug-In . SVG Version: 6.00 Build 0)  -->
<svg version="1.1" id="Capa_1" xmlns="http://www.w3.org/2000/svg" xmlns:xlink="http://www.w3.org/1999/xlink" x="0px" y="0px"
	 viewBox="0 0 45 36" style="enable-background:new 0 0 45 36;" xml:space="preserve">
<style type="text/css">
	.st0{fill:#FFFFFF;}
</style>
<rect id="XMLID_2_" class="st0" width="45" height="36"/>
<path id="XMLID_7_" d="M0,0v36h45V0H0z M44,20h-2v4h2v3h-2v6H3v-6H1v-3h2v-4H1v-3h2v-7h10V6h3V4h14v2h3v4h9v7h2V20z"/>
<rect id="XMLID_1_" x="9.2" y="21.8" width="1.6" height="10.3"/>
<rect id="XMLID_4_" x="12.7" y="21.8" width="1.6" height="10.3"/>
<rect id="XMLID_8_" x="16.3" y="21.8" width="1.6" height="10.3"/>
<rect id="XMLID_5_" x="19.9" y="21.8" width="1.6" height="10.3"/>
<rect id="XMLID_12_" x="23.5" y="21.8" width="1.6" height="10.3"/>
<rect id="XMLID_11_" x="27.1" y="21.8" width="1.6" height="10.3"/>
<rect id="XMLID_10_" x="30.7" y="21.8" width="1.6" height="10.3"/>
<rect id="XMLID_9_" x="34.3" y="21.8" width="1.6" height="10.3"/>
</svg>
